<svg width="151" height="24" viewBox="0 0 151 24" fill="none" xmlns="http://www.w3.org/2000/svg">
<path d="M1.32 16C1.24 16 1.176 15.976 1.128 15.928C1.08 15.872 1.056 15.804 1.056 15.724V7.888C1.056 7.8 1.08 7.732 1.128 7.684C1.176 7.628 1.24 7.6 1.32 7.6H5.928C6.016 7.6 6.084 7.628 6.132 7.684C6.18 7.732 6.204 7.8 6.204 7.888V8.332C6.204 8.412 6.18 8.48 6.132 8.536C6.084 8.584 6.016 8.608 5.928 8.608H2.184V15.724C2.184 15.804 2.156 15.872 2.1 15.928C2.044 15.976 1.976 16 1.896 16H1.32ZM5.39269 16C5.31269 16 5.24469 15.972 5.18869 15.916C5.13269 15.86 5.10469 15.792 5.10469 15.712V15.292C5.10469 15.22 5.12869 15.16 5.17669 15.112C5.22469 15.064 5.28469 15.036 5.35669 15.028C5.74069 15.02 6.02869 14.748 6.22069 14.212C6.41269 13.668 6.50869 12.788 6.50869 11.572V10.036C6.50869 9.956 6.53269 9.892 6.58069 9.844C6.63669 9.788 6.70469 9.76 6.78469 9.76H10.5527C10.6407 9.76 10.7087 9.784 10.7567 9.832C10.8047 9.88 10.8287 9.948 10.8287 10.036V15.724C10.8287 15.804 10.8007 15.872 10.7447 15.928C10.6967 15.976 10.6327 16 10.5527 16H10.0247C9.94469 16 9.87669 15.976 9.82069 15.928C9.77269 15.872 9.74869 15.804 9.74869 15.724V10.684H7.56469V11.692C7.56469 13.212 7.38869 14.312 7.03669 14.992C6.68469 15.664 6.13669 16 5.39269 16ZM14.3702 16.12C13.9782 16.12 13.6142 16.04 13.2782 15.88C12.9502 15.72 12.6862 15.504 12.4862 15.232C12.2942 14.952 12.1982 14.644 12.1982 14.308C12.1982 13.78 12.4142 13.348 12.8462 13.012C13.2782 12.676 13.8662 12.452 14.6102 12.34L16.4102 12.088V11.74C16.4102 10.916 15.9342 10.504 14.9822 10.504C14.6142 10.504 14.3182 10.58 14.0942 10.732C13.8702 10.876 13.7062 11.048 13.6022 11.248C13.5702 11.328 13.5342 11.384 13.4942 11.416C13.4622 11.44 13.4142 11.452 13.3502 11.452H12.8822C12.8102 11.452 12.7462 11.428 12.6902 11.38C12.6422 11.324 12.6182 11.26 12.6182 11.188C12.6182 11.004 12.7022 10.792 12.8702 10.552C13.0462 10.304 13.3142 10.092 13.6742 9.916C14.0342 9.732 14.4742 9.64 14.9942 9.64C15.8902 9.64 16.5302 9.848 16.9142 10.264C17.3062 10.68 17.5022 11.2 17.5022 11.824V15.724C17.5022 15.804 17.4742 15.872 17.4182 15.928C17.3702 15.976 17.3062 16 17.2262 16H16.6982C16.6182 16 16.5542 15.976 16.5062 15.928C16.4582 15.872 16.4342 15.804 16.4342 15.724V15.196C16.2582 15.46 16.0022 15.68 15.6662 15.856C15.3302 16.032 14.8982 16.12 14.3702 16.12ZM14.6102 15.244C15.1382 15.244 15.5702 15.072 15.9062 14.728C16.2422 14.384 16.4102 13.884 16.4102 13.228V12.892L15.0062 13.096C14.4302 13.176 13.9942 13.312 13.6982 13.504C13.4022 13.696 13.2542 13.936 13.2542 14.224C13.2542 14.552 13.3862 14.804 13.6502 14.98C13.9222 15.156 14.2422 15.244 14.6102 15.244ZM19.5158 16C19.4358 16 19.3678 15.976 19.3118 15.928C19.2638 15.872 19.2398 15.804 19.2398 15.724V10.036C19.2398 9.956 19.2638 9.892 19.3118 9.844C19.3678 9.788 19.4358 9.76 19.5158 9.76H21.9998C22.7198 9.76 23.2718 9.912 23.6558 10.216C24.0478 10.512 24.2438 10.916 24.2438 11.428C24.2438 11.772 24.1798 12.04 24.0518 12.232C23.9238 12.424 23.7238 12.588 23.4518 12.724C23.7398 12.844 23.9638 13.044 24.1238 13.324C24.2918 13.604 24.3758 13.908 24.3758 14.236C24.3758 14.804 24.1758 15.24 23.7758 15.544C23.3758 15.848 22.8118 16 22.0838 16H19.5158ZM21.9158 12.424C22.3078 12.424 22.6198 12.34 22.8518 12.172C23.0838 11.996 23.1998 11.752 23.1998 11.44C23.1998 10.888 22.7718 10.612 21.9158 10.612H20.2958V12.424H21.9158ZM21.9878 15.148C22.3878 15.148 22.7038 15.072 22.9358 14.92C23.1758 14.76 23.2958 14.528 23.2958 14.224C23.2958 13.904 23.1878 13.668 22.9718 13.516C22.7558 13.364 22.4278 13.288 21.9878 13.288H20.2958V15.148H21.9878ZM26.219 16C26.139 16 26.071 15.976 26.015 15.928C25.967 15.872 25.943 15.804 25.943 15.724V10.036C25.943 9.956 25.967 9.892 26.015 9.844C26.071 9.788 26.139 9.76 26.219 9.76H26.747C26.827 9.76 26.891 9.788 26.939 9.844C26.995 9.892 27.023 9.956 27.023 10.036V12.352H30.335V10.036C30.335 9.956 30.359 9.892 30.407 9.844C30.463 9.788 30.531 9.76 30.611 9.76H31.139C31.227 9.76 31.295 9.784 31.343 9.832C31.391 9.88 31.415 9.948 31.415 10.036V15.724C31.415 15.804 31.387 15.872 31.331 15.928C31.283 15.976 31.219 16 31.139 16H30.611C30.531 16 30.463 15.976 30.407 15.928C30.359 15.872 30.335 15.804 30.335 15.724V13.276H27.023V15.724C27.023 15.804 26.995 15.872 26.939 15.928C26.891 15.976 26.827 16 26.747 16H26.219ZM34.96 16.12C34.568 16.12 34.204 16.04 33.868 15.88C33.54 15.72 33.276 15.504 33.076 15.232C32.884 14.952 32.788 14.644 32.788 14.308C32.788 13.78 33.004 13.348 33.436 13.012C33.868 12.676 34.456 12.452 35.2 12.34L37 12.088V11.74C37 10.916 36.524 10.504 35.572 10.504C35.204 10.504 34.908 10.58 34.684 10.732C34.46 10.876 34.296 11.048 34.192 11.248C34.16 11.328 34.124 11.384 34.084 11.416C34.052 11.44 34.004 11.452 33.94 11.452H33.472C33.4 11.452 33.336 11.428 33.28 11.38C33.232 11.324 33.208 11.26 33.208 11.188C33.208 11.004 33.292 10.792 33.46 10.552C33.636 10.304 33.904 10.092 34.264 9.916C34.624 9.732 35.064 9.64 35.584 9.64C36.48 9.64 37.12 9.848 37.504 10.264C37.896 10.68 38.092 11.2 38.092 11.824V15.724C38.092 15.804 38.064 15.872 38.008 15.928C37.96 15.976 37.896 16 37.816 16H37.288C37.208 16 37.144 15.976 37.096 15.928C37.048 15.872 37.024 15.804 37.024 15.724V15.196C36.848 15.46 36.592 15.68 36.256 15.856C35.92 16.032 35.488 16.12 34.96 16.12ZM35.2 15.244C35.728 15.244 36.16 15.072 36.496 14.728C36.832 14.384 37 13.884 37 13.228V12.892L35.596 13.096C35.02 13.176 34.584 13.312 34.288 13.504C33.992 13.696 33.844 13.936 33.844 14.224C33.844 14.552 33.976 14.804 34.24 14.98C34.512 15.156 34.832 15.244 35.2 15.244ZM44.2457 9.76C44.3257 9.76 44.3897 9.788 44.4377 9.844C44.4937 9.892 44.5217 9.956 44.5217 10.036V15.724C44.5217 15.804 44.4937 15.872 44.4377 15.928C44.3897 15.976 44.3257 16 44.2457 16H43.7057C43.6257 16 43.5577 15.976 43.5017 15.928C43.4537 15.872 43.4297 15.804 43.4297 15.724V13.756H42.1337L40.7537 15.82C40.7217 15.868 40.6777 15.912 40.6217 15.952C40.5657 15.984 40.5057 16 40.4417 16H39.9017C39.8377 16 39.7817 15.976 39.7337 15.928C39.6857 15.88 39.6617 15.824 39.6617 15.76C39.6617 15.68 39.6897 15.604 39.7457 15.532L41.0897 13.564C40.6737 13.42 40.3577 13.188 40.1417 12.868C39.9337 12.548 39.8297 12.164 39.8297 11.716C39.8297 11.052 40.0257 10.56 40.4177 10.24C40.8177 9.92 41.4177 9.76 42.2177 9.76H44.2457ZM43.4417 10.636H42.1697C41.7057 10.636 41.3697 10.72 41.1617 10.888C40.9537 11.048 40.8497 11.324 40.8497 11.716C40.8497 12.068 40.9497 12.352 41.1497 12.568C41.3577 12.776 41.6657 12.88 42.0737 12.88H43.4417V10.636Z" fill="#414141"/>
<path fill-rule="evenodd" clip-rule="evenodd" d="M70.6464 5.64645C70.8417 5.45118 71.1583 5.45118 71.3536 5.64645L77.3536 11.6464C77.5488 11.8417 77.5488 12.1583 77.3536 12.3536L71.3536 18.3536C71.1583 18.5488 70.8417 18.5488 70.6464 18.3536C70.4512 18.1583 70.4512 17.8417 70.6464 17.6464L76.2929 12L70.6464 6.35355C70.4512 6.15829 70.4512 5.84171 70.6464 5.64645Z" fill="#414141"/>
<path d="M109.152 15.58C109.168 15.604 109.176 15.648 109.176 15.712C109.176 15.792 109.148 15.86 109.092 15.916C109.044 15.972 108.98 16 108.9 16H108.276C108.14 16 108.036 15.94 107.964 15.82L105.648 12.268H104.184V15.724C104.184 15.804 104.156 15.872 104.1 15.928C104.044 15.976 103.976 16 103.896 16H103.32C103.24 16 103.176 15.976 103.128 15.928C103.08 15.872 103.056 15.804 103.056 15.724V7.888C103.056 7.8 103.08 7.732 103.128 7.684C103.176 7.628 103.24 7.6 103.32 7.6H103.896C103.984 7.6 104.052 7.628 104.1 7.684C104.156 7.732 104.184 7.8 104.184 7.888V11.224L105.564 11.236L107.712 7.792C107.8 7.664 107.94 7.6 108.132 7.6H108.732C108.812 7.6 108.872 7.624 108.912 7.672C108.952 7.712 108.972 7.768 108.972 7.84C108.972 7.88 108.952 7.932 108.912 7.996L106.608 11.668L109.152 15.58ZM112.709 16.12C111.829 16.12 111.149 15.872 110.669 15.376C110.197 14.88 109.945 14.22 109.913 13.396L109.901 12.88L109.913 12.364C109.945 11.54 110.201 10.88 110.681 10.384C111.169 9.888 111.845 9.64 112.709 9.64C113.573 9.64 114.245 9.888 114.725 10.384C115.213 10.88 115.473 11.54 115.505 12.364C115.521 12.54 115.529 12.712 115.529 12.88C115.529 13.048 115.521 13.22 115.505 13.396C115.473 14.22 115.217 14.88 114.737 15.376C114.265 15.872 113.589 16.12 112.709 16.12ZM112.709 15.22C113.221 15.22 113.625 15.06 113.921 14.74C114.225 14.412 114.389 13.944 114.413 13.336C114.421 13.256 114.425 13.104 114.425 12.88C114.425 12.656 114.421 12.504 114.413 12.424C114.389 11.816 114.225 11.352 113.921 11.032C113.625 10.704 113.221 10.54 112.709 10.54C112.197 10.54 111.789 10.704 111.485 11.032C111.189 11.352 111.029 11.816 111.005 12.424L110.993 12.88L111.005 13.336C111.029 13.944 111.189 14.412 111.485 14.74C111.789 15.06 112.197 15.22 112.709 15.22ZM117.333 18.28C117.253 18.28 117.185 18.256 117.129 18.208C117.081 18.16 117.057 18.092 117.057 18.004V10.036C117.057 9.948 117.081 9.88 117.129 9.832C117.185 9.784 117.253 9.76 117.333 9.76H117.837C117.925 9.76 117.993 9.784 118.041 9.832C118.089 9.88 118.113 9.948 118.113 10.036V10.564C118.577 9.948 119.237 9.64 120.093 9.64C120.933 9.64 121.561 9.908 121.977 10.444C122.401 10.972 122.625 11.648 122.649 12.472C122.657 12.56 122.661 12.696 122.661 12.88C122.661 13.064 122.657 13.2 122.649 13.288C122.625 14.104 122.401 14.78 121.977 15.316C121.561 15.852 120.933 16.12 120.093 16.12C119.237 16.12 118.589 15.816 118.149 15.208V18.004C118.149 18.084 118.121 18.148 118.065 18.196C118.017 18.252 117.953 18.28 117.873 18.28H117.333ZM119.865 15.184C120.441 15.184 120.861 15.004 121.125 14.644C121.389 14.284 121.533 13.812 121.557 13.228C121.565 13.148 121.569 13.032 121.569 12.88C121.569 11.344 121.001 10.576 119.865 10.576C119.305 10.576 118.881 10.764 118.593 11.14C118.313 11.508 118.165 11.944 118.149 12.448C118.141 12.536 118.137 12.692 118.137 12.916C118.137 13.14 118.141 13.296 118.149 13.384C118.165 13.872 118.317 14.296 118.605 14.656C118.901 15.008 119.321 15.184 119.865 15.184ZM126.318 16.12C125.742 16.12 125.262 16.028 124.878 15.844C124.502 15.66 124.226 15.436 124.05 15.172C123.882 14.908 123.794 14.648 123.786 14.392C123.786 14.32 123.81 14.264 123.858 14.224C123.906 14.176 123.966 14.152 124.038 14.152H124.554C124.634 14.152 124.694 14.172 124.734 14.212C124.782 14.244 124.822 14.304 124.854 14.392C124.942 14.696 125.114 14.912 125.37 15.04C125.634 15.168 125.982 15.232 126.414 15.232C126.83 15.232 127.17 15.148 127.434 14.98C127.706 14.804 127.842 14.548 127.842 14.212C127.842 13.54 127.454 13.204 126.678 13.204H126.018C125.938 13.204 125.874 13.18 125.826 13.132C125.778 13.084 125.754 13.02 125.754 12.94V12.64C125.754 12.56 125.778 12.496 125.826 12.448C125.874 12.4 125.938 12.376 126.018 12.376H126.606C127.294 12.376 127.638 12.1 127.638 11.548C127.638 11.26 127.53 11.02 127.314 10.828C127.106 10.628 126.774 10.528 126.318 10.528C125.87 10.528 125.546 10.604 125.346 10.756C125.146 10.9 125.002 11.14 124.914 11.476C124.874 11.628 124.774 11.704 124.614 11.704H124.11C124.046 11.704 123.99 11.684 123.942 11.644C123.894 11.596 123.87 11.54 123.87 11.476C123.878 11.14 123.974 10.836 124.158 10.564C124.342 10.284 124.614 10.06 124.974 9.892C125.342 9.724 125.79 9.64 126.318 9.64C126.87 9.64 127.322 9.728 127.674 9.904C128.034 10.08 128.294 10.3 128.454 10.564C128.614 10.828 128.694 11.104 128.694 11.392C128.694 11.72 128.638 11.984 128.526 12.184C128.422 12.384 128.234 12.552 127.962 12.688C128.306 12.824 128.55 13.028 128.694 13.3C128.846 13.564 128.922 13.892 128.922 14.284C128.922 14.876 128.682 15.332 128.202 15.652C127.722 15.964 127.094 16.12 126.318 16.12ZM135.543 9.76C135.607 9.76 135.667 9.784 135.723 9.832C135.779 9.88 135.807 9.936 135.807 10V15.724C135.807 15.804 135.779 15.872 135.723 15.928C135.675 15.976 135.611 16 135.531 16H135.003C134.923 16 134.855 15.976 134.799 15.928C134.751 15.872 134.727 15.804 134.727 15.724V11.332L131.367 15.82C131.279 15.94 131.175 16 131.055 16H130.539C130.475 16 130.415 15.976 130.359 15.928C130.311 15.872 130.287 15.812 130.287 15.748V10.036C130.287 9.956 130.311 9.892 130.359 9.844C130.415 9.788 130.483 9.76 130.563 9.76H131.091C131.171 9.76 131.235 9.788 131.283 9.844C131.339 9.892 131.367 9.956 131.367 10.036V14.428L134.727 9.94C134.815 9.82 134.919 9.76 135.039 9.76H135.543ZM137.852 16C137.772 16 137.704 15.976 137.648 15.928C137.6 15.872 137.576 15.804 137.576 15.724V10.036C137.576 9.956 137.6 9.892 137.648 9.844C137.704 9.788 137.772 9.76 137.852 9.76H138.38C138.46 9.76 138.524 9.788 138.572 9.844C138.628 9.892 138.656 9.956 138.656 10.036V12.352H141.968V10.036C141.968 9.956 141.992 9.892 142.04 9.844C142.096 9.788 142.164 9.76 142.244 9.76H142.772C142.86 9.76 142.928 9.784 142.976 9.832C143.024 9.88 143.048 9.948 143.048 10.036V15.724C143.048 15.804 143.02 15.872 142.964 15.928C142.916 15.976 142.852 16 142.772 16H142.244C142.164 16 142.096 15.976 142.04 15.928C141.992 15.872 141.968 15.804 141.968 15.724V13.276H138.656V15.724C138.656 15.804 138.628 15.872 138.572 15.928C138.524 15.976 138.46 16 138.38 16H137.852ZM146.593 16.12C146.201 16.12 145.837 16.04 145.501 15.88C145.173 15.72 144.909 15.504 144.709 15.232C144.517 14.952 144.421 14.644 144.421 14.308C144.421 13.78 144.637 13.348 145.069 13.012C145.501 12.676 146.089 12.452 146.833 12.34L148.633 12.088V11.74C148.633 10.916 148.157 10.504 147.205 10.504C146.837 10.504 146.541 10.58 146.317 10.732C146.093 10.876 145.929 11.048 145.825 11.248C145.793 11.328 145.757 11.384 145.717 11.416C145.685 11.44 145.637 11.452 145.573 11.452H145.105C145.033 11.452 144.969 11.428 144.913 11.38C144.865 11.324 144.841 11.26 144.841 11.188C144.841 11.004 144.925 10.792 145.093 10.552C145.269 10.304 145.537 10.092 145.897 9.916C146.257 9.732 146.697 9.64 147.217 9.64C148.113 9.64 148.753 9.848 149.137 10.264C149.529 10.68 149.725 11.2 149.725 11.824V15.724C149.725 15.804 149.697 15.872 149.641 15.928C149.593 15.976 149.529 16 149.449 16H148.921C148.841 16 148.777 15.976 148.729 15.928C148.681 15.872 148.657 15.804 148.657 15.724V15.196C148.481 15.46 148.225 15.68 147.889 15.856C147.553 16.032 147.121 16.12 146.593 16.12ZM146.833 15.244C147.361 15.244 147.793 15.072 148.129 14.728C148.465 14.384 148.633 13.884 148.633 13.228V12.892L147.229 13.096C146.653 13.176 146.217 13.312 145.921 13.504C145.625 13.696 145.477 13.936 145.477 14.224C145.477 14.552 145.609 14.804 145.873 14.98C146.145 15.156 146.465 15.244 146.833 15.244Z" fill="#8F8F8F"/>
</svg>
