<svg width="53" height="32" viewBox="0 0 53 32" fill="none" xmlns="http://www.w3.org/2000/svg">
<rect width="53" height="32" rx="4" fill="#FF6633"/>
<path d="M9.80794 16.872C9.70127 16.872 9.6106 16.84 9.53594 16.776C9.47194 16.7013 9.43994 16.6107 9.43994 16.504V15.896C9.43994 15.7893 9.47194 15.704 9.53594 15.64C9.6106 15.5653 9.70127 15.528 9.80794 15.528H14.6079C14.7146 15.528 14.7999 15.5653 14.8639 15.64C14.9386 15.704 14.9759 15.7893 14.9759 15.896V16.504C14.9759 16.6107 14.9386 16.7013 14.8639 16.776C14.7999 16.84 14.7146 16.872 14.6079 16.872H9.80794ZM19.9082 21C19.8015 21 19.7109 20.968 19.6362 20.904C19.5722 20.8293 19.5402 20.7387 19.5402 20.632V11.672L16.8842 13.72C16.8095 13.784 16.7295 13.816 16.6442 13.816C16.5482 13.816 16.4575 13.7627 16.3722 13.656L15.9562 13.128C15.9029 13.0533 15.8762 12.9787 15.8762 12.904C15.8762 12.776 15.9295 12.6747 16.0362 12.6L19.5242 9.912C19.6415 9.83733 19.7802 9.8 19.9402 9.8H20.7562C20.8629 9.8 20.9482 9.83733 21.0122 9.912C21.0869 9.976 21.1242 10.0613 21.1242 10.168V20.632C21.1242 20.7387 21.0869 20.8293 21.0122 20.904C20.9482 20.968 20.8629 21 20.7562 21H19.9082ZM27.4079 21.16C26.0319 21.16 25.0239 20.76 24.3839 19.96C23.7439 19.16 23.4026 18.1093 23.3599 16.808C23.3493 16.52 23.3439 16.056 23.3439 15.416C23.3439 14.7547 23.3493 14.2747 23.3599 13.976C23.3919 12.696 23.7333 11.656 24.3839 10.856C25.0346 10.0453 26.0426 9.64 27.4079 9.64C28.7839 9.64 29.7973 10.0453 30.4479 10.856C31.0986 11.656 31.4399 12.696 31.4719 13.976C31.4933 14.5733 31.5039 15.0533 31.5039 15.416C31.5039 15.768 31.4933 16.232 31.4719 16.808C31.4293 18.1093 31.0879 19.16 30.4479 19.96C29.8079 20.76 28.7946 21.16 27.4079 21.16ZM27.4079 19.784C28.2079 19.784 28.8106 19.5173 29.2159 18.984C29.6319 18.4507 29.8506 17.6987 29.8719 16.728C29.8933 16.1093 29.9039 15.6613 29.9039 15.384C29.9039 15.0853 29.8933 14.648 29.8719 14.072C29.8506 13.112 29.6373 12.36 29.2319 11.816C28.8266 11.272 28.2186 11 27.4079 11C26.6079 11 25.9999 11.272 25.5839 11.816C25.1786 12.36 24.9653 13.112 24.9439 14.072L24.9279 15.384L24.9439 16.728C24.9653 17.6987 25.1786 18.4507 25.5839 18.984C25.9999 19.5173 26.6079 19.784 27.4079 19.784ZM35.5802 15.416C34.8869 15.416 34.3375 15.2347 33.9322 14.872C33.5375 14.4987 33.3189 13.9867 33.2762 13.336C33.2655 13.1547 33.2602 12.92 33.2602 12.632C33.2602 12.3227 33.2655 12.072 33.2762 11.88C33.3082 11.2187 33.5162 10.696 33.9002 10.312C34.2949 9.91733 34.8549 9.72 35.5802 9.72C36.3055 9.72 36.8602 9.91733 37.2442 10.312C37.6389 10.696 37.8522 11.2187 37.8842 11.88C37.9055 12.3067 37.9162 12.5787 37.9162 12.696C37.9162 12.8027 37.9055 13.016 37.8842 13.336C37.8522 13.9867 37.6335 14.4987 37.2282 14.872C36.8229 15.2347 36.2735 15.416 35.5802 15.416ZM34.2362 21C34.1402 21 34.0602 20.9733 33.9962 20.92C33.9322 20.856 33.9002 20.776 33.9002 20.68C33.9002 20.616 33.9215 20.5573 33.9642 20.504L41.8682 10.104C41.9535 9.98667 42.0282 9.90667 42.0922 9.864C42.1669 9.82133 42.2682 9.8 42.3962 9.8H42.9242C43.0309 9.8 43.1109 9.832 43.1642 9.896C43.2282 9.94933 43.2602 10.024 43.2602 10.12C43.2602 10.184 43.2389 10.2427 43.1962 10.296L35.3082 20.696C35.2229 20.8133 35.1429 20.8933 35.0682 20.936C35.0042 20.9787 34.9029 21 34.7642 21H34.2362ZM35.5802 14.424C35.9642 14.424 36.2415 14.312 36.4122 14.088C36.5935 13.864 36.7002 13.592 36.7322 13.272C36.7535 12.888 36.7642 12.664 36.7642 12.6C36.7642 12.504 36.7535 12.2853 36.7322 11.944C36.7109 11.6133 36.6042 11.336 36.4122 11.112C36.2309 10.888 35.9535 10.776 35.5802 10.776C35.2069 10.776 34.9295 10.888 34.7482 11.112C34.5669 11.336 34.4655 11.6133 34.4442 11.944C34.4335 12.1147 34.4282 12.3333 34.4282 12.6C34.4282 12.856 34.4335 13.08 34.4442 13.272C34.4762 13.6027 34.5775 13.88 34.7482 14.104C34.9295 14.3173 35.2069 14.424 35.5802 14.424ZM41.5642 21.096C40.8709 21.096 40.3215 20.904 39.9162 20.52C39.5215 20.1253 39.3029 19.6027 39.2602 18.952C39.2495 18.7707 39.2442 18.536 39.2442 18.248C39.2442 17.9387 39.2495 17.688 39.2602 17.496C39.3029 16.8347 39.5162 16.312 39.9002 15.928C40.2949 15.5333 40.8495 15.336 41.5642 15.336C42.2895 15.336 42.8442 15.5333 43.2282 15.928C43.6229 16.312 43.8415 16.8347 43.8842 17.496C43.9055 17.88 43.9162 18.1307 43.9162 18.248C43.9162 18.3547 43.9055 18.5893 43.8842 18.952C43.8415 19.6027 43.6175 20.1253 43.2122 20.52C42.8069 20.904 42.2575 21.096 41.5642 21.096ZM41.5642 20.04C41.9482 20.04 42.2255 19.928 42.3962 19.704C42.5775 19.48 42.6842 19.208 42.7162 18.888C42.7375 18.504 42.7482 18.28 42.7482 18.216C42.7482 18.12 42.7375 17.9013 42.7162 17.56C42.6949 17.2293 42.5935 16.952 42.4122 16.728C42.2309 16.504 41.9482 16.392 41.5642 16.392C41.1909 16.392 40.9135 16.504 40.7322 16.728C40.5509 16.952 40.4495 17.2293 40.4282 17.56C40.4175 17.7307 40.4122 17.9493 40.4122 18.216C40.4122 18.472 40.4175 18.696 40.4282 18.888C40.4602 19.208 40.5615 19.48 40.7322 19.704C40.9135 19.928 41.1909 20.04 41.5642 20.04Z" fill="white"/>
</svg>
