<svg width="584" height="86" viewBox="0 0 584 86" fill="none" xmlns="http://www.w3.org/2000/svg">
<rect width="584" height="26" fill="#F3F2F1"/>
<path d="M9.32 17C9.24 17 9.176 16.976 9.128 16.928C9.08 16.872 9.056 16.804 9.056 16.724V8.888C9.056 8.8 9.08 8.732 9.128 8.684C9.176 8.628 9.24 8.6 9.32 8.6H14.516C14.604 8.6 14.672 8.628 14.72 8.684C14.776 8.732 14.804 8.8 14.804 8.888V9.332C14.804 9.42 14.776 9.488 14.72 9.536C14.672 9.584 14.604 9.608 14.516 9.608H10.184V12.08H12.596C13.428 12.08 14.08 12.3 14.552 12.74C15.024 13.172 15.26 13.76 15.26 14.504C15.26 14.92 15.16 15.32 14.96 15.704C14.76 16.08 14.46 16.392 14.06 16.64C13.66 16.88 13.172 17 12.596 17H9.32ZM12.452 16.052C12.964 16.052 13.368 15.904 13.664 15.608C13.96 15.304 14.108 14.928 14.108 14.48C14.108 14.032 13.968 13.676 13.688 13.412C13.408 13.14 12.996 13.004 12.452 13.004H10.184V16.052H12.452ZM16.8521 19.28C16.7721 19.28 16.7041 19.256 16.6481 19.208C16.6001 19.16 16.5761 19.092 16.5761 19.004V11.036C16.5761 10.948 16.6001 10.88 16.6481 10.832C16.7041 10.784 16.7721 10.76 16.8521 10.76H17.3561C17.4441 10.76 17.5121 10.784 17.5601 10.832C17.6081 10.88 17.6321 10.948 17.6321 11.036V11.564C18.0961 10.948 18.7561 10.64 19.6121 10.64C20.4521 10.64 21.0801 10.908 21.4961 11.444C21.9201 11.972 22.1441 12.648 22.1681 13.472C22.1761 13.56 22.1801 13.696 22.1801 13.88C22.1801 14.064 22.1761 14.2 22.1681 14.288C22.1441 15.104 21.9201 15.78 21.4961 16.316C21.0801 16.852 20.4521 17.12 19.6121 17.12C18.7561 17.12 18.1081 16.816 17.6681 16.208V19.004C17.6681 19.084 17.6401 19.148 17.5841 19.196C17.5361 19.252 17.4721 19.28 17.3921 19.28H16.8521ZM19.3841 16.184C19.9601 16.184 20.3801 16.004 20.6441 15.644C20.9081 15.284 21.0521 14.812 21.0761 14.228C21.0841 14.148 21.0881 14.032 21.0881 13.88C21.0881 12.344 20.5201 11.576 19.3841 11.576C18.8241 11.576 18.4001 11.764 18.1121 12.14C17.8321 12.508 17.6841 12.944 17.6681 13.448C17.6601 13.536 17.6561 13.692 17.6561 13.916C17.6561 14.14 17.6601 14.296 17.6681 14.384C17.6841 14.872 17.8361 15.296 18.1241 15.656C18.4201 16.008 18.8401 16.184 19.3841 16.184ZM26.1611 17.12C25.3451 17.12 24.6931 16.868 24.2051 16.364C23.7171 15.852 23.4491 15.156 23.4011 14.276L23.3891 13.868L23.4011 13.472C23.4491 12.608 23.7171 11.92 24.2051 11.408C24.6931 10.896 25.3451 10.64 26.1611 10.64C27.0411 10.64 27.7211 10.92 28.2011 11.48C28.6891 12.04 28.9331 12.8 28.9331 13.76V13.976C28.9331 14.056 28.9051 14.124 28.8491 14.18C28.8011 14.228 28.7371 14.252 28.6571 14.252H24.4931V14.36C24.5171 14.88 24.6771 15.324 24.9731 15.692C25.2691 16.06 25.6611 16.244 26.1491 16.244C26.5251 16.244 26.8291 16.172 27.0611 16.028C27.3011 15.876 27.4811 15.72 27.6011 15.56C27.6731 15.464 27.7291 15.408 27.7691 15.392C27.8091 15.368 27.8771 15.356 27.9731 15.356H28.5011C28.5731 15.356 28.6331 15.376 28.6811 15.416C28.7371 15.456 28.7651 15.508 28.7651 15.572C28.7651 15.748 28.6571 15.96 28.4411 16.208C28.2251 16.456 27.9171 16.672 27.5171 16.856C27.1251 17.032 26.6731 17.12 26.1611 17.12ZM27.8411 13.436V13.4C27.8411 12.84 27.6891 12.384 27.3851 12.032C27.0811 11.68 26.6731 11.504 26.1611 11.504C25.6411 11.504 25.2331 11.68 24.9371 12.032C24.6411 12.384 24.4931 12.84 24.4931 13.4V13.436H27.8411ZM30.6682 17C30.5882 17 30.5202 16.976 30.4642 16.928C30.4162 16.872 30.3922 16.804 30.3922 16.724V11.036C30.3922 10.956 30.4162 10.892 30.4642 10.844C30.5202 10.788 30.5882 10.76 30.6682 10.76H31.1962C31.2762 10.76 31.3402 10.788 31.3882 10.844C31.4442 10.892 31.4722 10.956 31.4722 11.036V13.352H34.7842V11.036C34.7842 10.956 34.8082 10.892 34.8562 10.844C34.9122 10.788 34.9802 10.76 35.0602 10.76H35.5882C35.6762 10.76 35.7442 10.784 35.7922 10.832C35.8402 10.88 35.8642 10.948 35.8642 11.036V16.724C35.8642 16.804 35.8362 16.872 35.7802 16.928C35.7322 16.976 35.6682 17 35.5882 17H35.0602C34.9802 17 34.9122 16.976 34.8562 16.928C34.8082 16.872 34.7842 16.804 34.7842 16.724V14.276H31.4722V16.724C31.4722 16.804 31.4442 16.872 31.3882 16.928C31.3402 16.976 31.2762 17 31.1962 17H30.6682ZM37.3093 18.32C37.2293 18.32 37.1613 18.296 37.1053 18.248C37.0573 18.2 37.0333 18.132 37.0333 18.044V16.34C37.0333 16.26 37.0573 16.196 37.1053 16.148C37.1613 16.092 37.2293 16.064 37.3093 16.064H37.3693C37.7053 16.064 37.9573 15.784 38.1253 15.224C38.3013 14.664 38.3893 13.78 38.3893 12.572V11.036C38.3893 10.956 38.4133 10.892 38.4613 10.844C38.5173 10.788 38.5853 10.76 38.6653 10.76H42.4573C42.5453 10.76 42.6133 10.784 42.6613 10.832C42.7093 10.88 42.7333 10.948 42.7333 11.036V16.052H43.2973C43.3853 16.052 43.4533 16.076 43.5013 16.124C43.5493 16.172 43.5733 16.24 43.5733 16.328V18.044C43.5733 18.132 43.5493 18.2 43.5013 18.248C43.4533 18.296 43.3853 18.32 43.2973 18.32H42.7693C42.6893 18.32 42.6253 18.292 42.5773 18.236C42.5293 18.188 42.5053 18.124 42.5053 18.044V17H38.1133V18.044C38.1133 18.124 38.0853 18.188 38.0293 18.236C37.9813 18.292 37.9173 18.32 37.8373 18.32H37.3093ZM41.6533 16.052V11.684H39.4453V12.692C39.4453 14.324 39.2133 15.448 38.7493 16.064L41.6533 16.052Z" fill="#414141"/>
<path d="M216.711 17H214.947V9.89258H211.531V17H209.773V8.46875H216.711V17ZM220.016 13.9941V17H218.258V8.46875H221.586C222.227 8.46875 222.789 8.58594 223.273 8.82031C223.762 9.05469 224.137 9.38867 224.398 9.82227C224.66 10.252 224.791 10.7422 224.791 11.293C224.791 12.1289 224.504 12.7891 223.93 13.2734C223.359 13.7539 222.568 13.9941 221.557 13.9941H220.016ZM220.016 12.5703H221.586C222.051 12.5703 222.404 12.4609 222.646 12.2422C222.893 12.0234 223.016 11.7109 223.016 11.3047C223.016 10.8867 222.893 10.5488 222.646 10.291C222.4 10.0332 222.061 9.90039 221.627 9.89258H220.016V12.5703ZM233.012 12.9277C233.012 13.7676 232.863 14.5039 232.566 15.1367C232.27 15.7695 231.844 16.2578 231.289 16.6016C230.738 16.9453 230.105 17.1172 229.391 17.1172C228.684 17.1172 228.053 16.9473 227.498 16.6074C226.943 16.2676 226.514 15.7832 226.209 15.1543C225.904 14.5215 225.75 13.7949 225.746 12.9746V12.5527C225.746 11.7129 225.896 10.9746 226.197 10.3379C226.502 9.69727 226.93 9.20703 227.48 8.86719C228.035 8.52344 228.668 8.35156 229.379 8.35156C230.09 8.35156 230.721 8.52344 231.271 8.86719C231.826 9.20703 232.254 9.69727 232.555 10.3379C232.859 10.9746 233.012 11.7109 233.012 12.5469V12.9277ZM231.23 12.541C231.23 11.6465 231.07 10.9668 230.75 10.502C230.43 10.0371 229.973 9.80469 229.379 9.80469C228.789 9.80469 228.334 10.0352 228.014 10.4961C227.693 10.9531 227.531 11.625 227.527 12.5117V12.9277C227.527 13.7988 227.688 14.4746 228.008 14.9551C228.328 15.4355 228.789 15.6758 229.391 15.6758C229.98 15.6758 230.434 15.4453 230.75 14.9844C231.066 14.5195 231.227 13.8438 231.23 12.957V12.541ZM240.986 14.1582C240.92 15.0762 240.58 15.7988 239.967 16.3262C239.357 16.8535 238.553 17.1172 237.553 17.1172C236.459 17.1172 235.598 16.75 234.969 16.0156C234.344 15.2773 234.031 14.2656 234.031 12.9805V12.459C234.031 11.6387 234.176 10.916 234.465 10.291C234.754 9.66602 235.166 9.1875 235.701 8.85547C236.24 8.51953 236.865 8.35156 237.576 8.35156C238.561 8.35156 239.354 8.61523 239.955 9.14258C240.557 9.66992 240.904 10.4102 240.998 11.3633H239.24C239.197 10.8125 239.043 10.4141 238.777 10.168C238.516 9.91797 238.115 9.79297 237.576 9.79297C236.99 9.79297 236.551 10.0039 236.258 10.4258C235.969 10.8438 235.82 11.4941 235.812 12.377V13.0215C235.812 13.9434 235.951 14.6172 236.229 15.043C236.51 15.4688 236.951 15.6816 237.553 15.6816C238.096 15.6816 238.5 15.5586 238.766 15.3125C239.035 15.0625 239.189 14.6777 239.229 14.1582H240.986ZM248.387 9.89258H245.773V17H244.016V9.89258H241.438V8.46875H248.387V9.89258ZM256.238 12.9277C256.238 13.7676 256.09 14.5039 255.793 15.1367C255.496 15.7695 255.07 16.2578 254.516 16.6016C253.965 16.9453 253.332 17.1172 252.617 17.1172C251.91 17.1172 251.279 16.9473 250.725 16.6074C250.17 16.2676 249.74 15.7832 249.436 15.1543C249.131 14.5215 248.977 13.7949 248.973 12.9746V12.5527C248.973 11.7129 249.123 10.9746 249.424 10.3379C249.729 9.69727 250.156 9.20703 250.707 8.86719C251.262 8.52344 251.895 8.35156 252.605 8.35156C253.316 8.35156 253.947 8.52344 254.498 8.86719C255.053 9.20703 255.48 9.69727 255.781 10.3379C256.086 10.9746 256.238 11.7109 256.238 12.5469V12.9277ZM254.457 12.541C254.457 11.6465 254.297 10.9668 253.977 10.502C253.656 10.0371 253.199 9.80469 252.605 9.80469C252.016 9.80469 251.561 10.0352 251.24 10.4961C250.92 10.9531 250.758 11.625 250.754 12.5117V12.9277C250.754 13.7988 250.914 14.4746 251.234 14.9551C251.555 15.4355 252.016 15.6758 252.617 15.6758C253.207 15.6758 253.66 15.4453 253.977 14.9844C254.293 14.5195 254.453 13.8438 254.457 12.957V12.541ZM260.299 13.5137H259.285V17H257.527V8.46875H259.285V11.8848H260.088L262.174 8.46875H264.318L261.688 12.5059L264.594 17H262.496L260.299 13.5137ZM265.273 17V8.46875H268.262C269.297 8.46875 270.082 8.66797 270.617 9.06641C271.152 9.46094 271.42 10.041 271.42 10.8066C271.42 11.2246 271.312 11.5938 271.098 11.9141C270.883 12.2305 270.584 12.4629 270.201 12.6113C270.639 12.7207 270.982 12.9414 271.232 13.2734C271.486 13.6055 271.613 14.0117 271.613 14.4922C271.613 15.3125 271.352 15.9336 270.828 16.3555C270.305 16.7773 269.559 16.9922 268.59 17H265.273ZM267.031 13.2852V15.5879H268.537C268.951 15.5879 269.273 15.4902 269.504 15.2949C269.738 15.0957 269.855 14.8223 269.855 14.4746C269.855 13.6934 269.451 13.2969 268.643 13.2852H267.031ZM267.031 12.043H268.332C269.219 12.0273 269.662 11.6738 269.662 10.9824C269.662 10.5957 269.549 10.3184 269.322 10.1504C269.1 9.97852 268.746 9.89258 268.262 9.89258H267.031V12.043ZM277.754 15.2422H274.672L274.086 17H272.217L275.393 8.46875H277.021L280.215 17H278.346L277.754 15.2422ZM275.146 13.8184H277.279L276.207 10.625L275.146 13.8184ZM282.764 8.46875V15.5879H285.131V8.46875H286.895V15.5879H289.238V8.46875H290.996V17H281V8.46875H282.764ZM297.635 8.46875H299.398V17H297.635V11.334L294.219 17H292.461V8.46875H294.219V14.1465L297.635 8.46875ZM307.865 17H306.107V13.3438H302.68V17H300.922V8.46875H302.68V11.9258H306.107V8.46875H307.865V17ZM316.414 12.9277C316.414 13.7676 316.266 14.5039 315.969 15.1367C315.672 15.7695 315.246 16.2578 314.691 16.6016C314.141 16.9453 313.508 17.1172 312.793 17.1172C312.086 17.1172 311.455 16.9473 310.9 16.6074C310.346 16.2676 309.916 15.7832 309.611 15.1543C309.307 14.5215 309.152 13.7949 309.148 12.9746V12.5527C309.148 11.7129 309.299 10.9746 309.6 10.3379C309.904 9.69727 310.332 9.20703 310.883 8.86719C311.438 8.52344 312.07 8.35156 312.781 8.35156C313.492 8.35156 314.123 8.52344 314.674 8.86719C315.229 9.20703 315.656 9.69727 315.957 10.3379C316.262 10.9746 316.414 11.7109 316.414 12.5469V12.9277ZM314.633 12.541C314.633 11.6465 314.473 10.9668 314.152 10.502C313.832 10.0371 313.375 9.80469 312.781 9.80469C312.191 9.80469 311.736 10.0352 311.416 10.4961C311.096 10.9531 310.934 11.625 310.93 12.5117V12.9277C310.93 13.7988 311.09 14.4746 311.41 14.9551C311.73 15.4355 312.191 15.6758 312.793 15.6758C313.383 15.6758 313.836 15.4453 314.152 14.9844C314.469 14.5195 314.629 13.8438 314.633 12.957V12.541Z" fill="#414141"/>
<path d="M12.056 47.12C10.992 47.12 10.18 46.832 9.62 46.256C9.068 45.672 8.772 44.876 8.732 43.868C8.724 43.652 8.72 43.3 8.72 42.812C8.72 42.316 8.724 41.956 8.732 41.732C8.772 40.724 9.068 39.932 9.62 39.356C10.18 38.772 10.992 38.48 12.056 38.48C12.768 38.48 13.372 38.608 13.868 38.864C14.364 39.112 14.736 39.44 14.984 39.848C15.24 40.256 15.38 40.692 15.404 41.156C15.404 41.228 15.376 41.288 15.32 41.336C15.272 41.376 15.212 41.396 15.14 41.396H14.54C14.46 41.396 14.396 41.376 14.348 41.336C14.3 41.296 14.264 41.228 14.24 41.132C14.104 40.516 13.856 40.084 13.496 39.836C13.144 39.588 12.664 39.464 12.056 39.464C10.664 39.464 9.94 40.24 9.884 41.792C9.876 42.008 9.872 42.34 9.872 42.788C9.872 43.236 9.876 43.576 9.884 43.808C9.94 45.352 10.664 46.124 12.056 46.124C12.656 46.124 13.136 46 13.496 45.752C13.856 45.504 14.104 45.076 14.24 44.468C14.264 44.372 14.3 44.304 14.348 44.264C14.396 44.224 14.46 44.204 14.54 44.204H15.14C15.212 44.204 15.272 44.228 15.32 44.276C15.376 44.316 15.404 44.372 15.404 44.444C15.38 44.908 15.24 45.344 14.984 45.752C14.736 46.16 14.364 46.492 13.868 46.748C13.372 46.996 12.768 47.12 12.056 47.12ZM18.7885 47C18.7085 47 18.6405 46.976 18.5845 46.928C18.5365 46.872 18.5125 46.804 18.5125 46.724V41.684H16.4125C16.3325 41.684 16.2645 41.66 16.2085 41.612C16.1605 41.564 16.1365 41.5 16.1365 41.42V41.036C16.1365 40.956 16.1605 40.892 16.2085 40.844C16.2645 40.788 16.3325 40.76 16.4125 40.76H21.6805C21.7605 40.76 21.8245 40.788 21.8725 40.844C21.9205 40.892 21.9445 40.956 21.9445 41.036V41.42C21.9445 41.5 21.9205 41.564 21.8725 41.612C21.8245 41.66 21.7605 41.684 21.6805 41.684H19.5805V46.724C19.5805 46.804 19.5525 46.872 19.4965 46.928C19.4485 46.976 19.3845 47 19.3045 47H18.7885ZM23.2974 49.28C23.2174 49.28 23.1494 49.256 23.0934 49.208C23.0454 49.16 23.0214 49.092 23.0214 49.004V41.036C23.0214 40.948 23.0454 40.88 23.0934 40.832C23.1494 40.784 23.2174 40.76 23.2974 40.76H23.8014C23.8894 40.76 23.9574 40.784 24.0054 40.832C24.0534 40.88 24.0774 40.948 24.0774 41.036V41.564C24.5414 40.948 25.2014 40.64 26.0574 40.64C26.8974 40.64 27.5254 40.908 27.9414 41.444C28.3654 41.972 28.5894 42.648 28.6134 43.472C28.6214 43.56 28.6254 43.696 28.6254 43.88C28.6254 44.064 28.6214 44.2 28.6134 44.288C28.5894 45.104 28.3654 45.78 27.9414 46.316C27.5254 46.852 26.8974 47.12 26.0574 47.12C25.2014 47.12 24.5534 46.816 24.1134 46.208V49.004C24.1134 49.084 24.0854 49.148 24.0294 49.196C23.9814 49.252 23.9174 49.28 23.8374 49.28H23.2974ZM25.8294 46.184C26.4054 46.184 26.8254 46.004 27.0894 45.644C27.3534 45.284 27.4974 44.812 27.5214 44.228C27.5294 44.148 27.5334 44.032 27.5334 43.88C27.5334 42.344 26.9654 41.576 25.8294 41.576C25.2694 41.576 24.8454 41.764 24.5574 42.14C24.2774 42.508 24.1294 42.944 24.1134 43.448C24.1054 43.536 24.1014 43.692 24.1014 43.916C24.1014 44.14 24.1054 44.296 24.1134 44.384C24.1294 44.872 24.2814 45.296 24.5694 45.656C24.8654 46.008 25.2854 46.184 25.8294 46.184ZM31.8624 47.12C31.4704 47.12 31.1064 47.04 30.7704 46.88C30.4424 46.72 30.1784 46.504 29.9784 46.232C29.7864 45.952 29.6904 45.644 29.6904 45.308C29.6904 44.78 29.9064 44.348 30.3384 44.012C30.7704 43.676 31.3584 43.452 32.1024 43.34L33.9024 43.088V42.74C33.9024 41.916 33.4264 41.504 32.4744 41.504C32.1064 41.504 31.8104 41.58 31.5864 41.732C31.3624 41.876 31.1984 42.048 31.0944 42.248C31.0624 42.328 31.0264 42.384 30.9864 42.416C30.9544 42.44 30.9064 42.452 30.8424 42.452H30.3744C30.3024 42.452 30.2384 42.428 30.1824 42.38C30.1344 42.324 30.1104 42.26 30.1104 42.188C30.1104 42.004 30.1944 41.792 30.3624 41.552C30.5384 41.304 30.8064 41.092 31.1664 40.916C31.5264 40.732 31.9664 40.64 32.4864 40.64C33.3824 40.64 34.0224 40.848 34.4064 41.264C34.7984 41.68 34.9944 42.2 34.9944 42.824V46.724C34.9944 46.804 34.9664 46.872 34.9104 46.928C34.8624 46.976 34.7984 47 34.7184 47H34.1904C34.1104 47 34.0464 46.976 33.9984 46.928C33.9504 46.872 33.9264 46.804 33.9264 46.724V46.196C33.7504 46.46 33.4944 46.68 33.1584 46.856C32.8224 47.032 32.3904 47.12 31.8624 47.12ZM32.1024 46.244C32.6304 46.244 33.0624 46.072 33.3984 45.728C33.7344 45.384 33.9024 44.884 33.9024 44.228V43.892L32.4984 44.096C31.9224 44.176 31.4864 44.312 31.1904 44.504C30.8944 44.696 30.7464 44.936 30.7464 45.224C30.7464 45.552 30.8784 45.804 31.1424 45.98C31.4144 46.156 31.7344 46.244 32.1024 46.244ZM37.008 47C36.928 47 36.86 46.976 36.804 46.928C36.756 46.872 36.732 46.804 36.732 46.724V41.036C36.732 40.956 36.756 40.892 36.804 40.844C36.86 40.788 36.928 40.76 37.008 40.76H37.536C37.616 40.76 37.68 40.788 37.728 40.844C37.784 40.892 37.812 40.956 37.812 41.036V43.352H41.124V41.036C41.124 40.956 41.148 40.892 41.196 40.844C41.252 40.788 41.32 40.76 41.4 40.76H41.928C42.016 40.76 42.084 40.784 42.132 40.832C42.18 40.88 42.204 40.948 42.204 41.036V46.724C42.204 46.804 42.176 46.872 42.12 46.928C42.072 46.976 42.008 47 41.928 47H41.4C41.32 47 41.252 46.976 41.196 46.928C41.148 46.872 41.124 46.804 41.124 46.724V44.276H37.812V46.724C37.812 46.804 37.784 46.872 37.728 46.928C37.68 46.976 37.616 47 37.536 47H37.008ZM45.7491 47.12C45.3571 47.12 44.9931 47.04 44.6571 46.88C44.3291 46.72 44.0651 46.504 43.8651 46.232C43.6731 45.952 43.5771 45.644 43.5771 45.308C43.5771 44.78 43.7931 44.348 44.2251 44.012C44.6571 43.676 45.2451 43.452 45.9891 43.34L47.7891 43.088V42.74C47.7891 41.916 47.3131 41.504 46.3611 41.504C45.9931 41.504 45.6971 41.58 45.4731 41.732C45.2491 41.876 45.0851 42.048 44.9811 42.248C44.9491 42.328 44.9131 42.384 44.8731 42.416C44.8411 42.44 44.7931 42.452 44.7291 42.452H44.2611C44.1891 42.452 44.1251 42.428 44.0691 42.38C44.0211 42.324 43.9971 42.26 43.9971 42.188C43.9971 42.004 44.0811 41.792 44.2491 41.552C44.4251 41.304 44.6931 41.092 45.0531 40.916C45.4131 40.732 45.8531 40.64 46.3731 40.64C47.2691 40.64 47.9091 40.848 48.2931 41.264C48.6851 41.68 48.8811 42.2 48.8811 42.824V46.724C48.8811 46.804 48.8531 46.872 48.7971 46.928C48.7491 46.976 48.6851 47 48.6051 47H48.0771C47.9971 47 47.9331 46.976 47.8851 46.928C47.8371 46.872 47.8131 46.804 47.8131 46.724V46.196C47.6371 46.46 47.3811 46.68 47.0451 46.856C46.7091 47.032 46.2771 47.12 45.7491 47.12ZM45.9891 46.244C46.5171 46.244 46.9491 46.072 47.2851 45.728C47.6211 45.384 47.7891 44.884 47.7891 44.228V43.892L46.3851 44.096C45.8091 44.176 45.3731 44.312 45.0771 44.504C44.7811 44.696 44.6331 44.936 44.6331 45.224C44.6331 45.552 44.7651 45.804 45.0291 45.98C45.3011 46.156 45.6211 46.244 45.9891 46.244ZM53.8479 47C53.7679 47 53.6999 46.976 53.6439 46.928C53.5959 46.872 53.5719 46.804 53.5719 46.724V41.036C53.5719 40.956 53.5959 40.892 53.6439 40.844C53.6999 40.788 53.7679 40.76 53.8479 40.76H58.5759C58.6559 40.76 58.7199 40.788 58.7679 40.844C58.8159 40.892 58.8399 40.956 58.8399 41.036V46.724C58.8399 46.804 58.8159 46.872 58.7679 46.928C58.7199 46.976 58.6559 47 58.5759 47H58.0479C57.9679 47 57.8999 46.976 57.8439 46.928C57.7959 46.872 57.7719 46.804 57.7719 46.724V41.684H54.6519V46.724C54.6519 46.804 54.6239 46.872 54.5679 46.928C54.5199 46.976 54.4559 47 54.3759 47H53.8479ZM60.9497 49.28C60.8697 49.28 60.8017 49.256 60.7457 49.208C60.6977 49.16 60.6737 49.092 60.6737 49.004V41.036C60.6737 40.948 60.6977 40.88 60.7457 40.832C60.8017 40.784 60.8697 40.76 60.9497 40.76H61.4537C61.5417 40.76 61.6097 40.784 61.6577 40.832C61.7057 40.88 61.7297 40.948 61.7297 41.036V41.564C62.1937 40.948 62.8537 40.64 63.7097 40.64C64.5497 40.64 65.1777 40.908 65.5937 41.444C66.0177 41.972 66.2417 42.648 66.2657 43.472C66.2737 43.56 66.2777 43.696 66.2777 43.88C66.2777 44.064 66.2737 44.2 66.2657 44.288C66.2417 45.104 66.0177 45.78 65.5937 46.316C65.1777 46.852 64.5497 47.12 63.7097 47.12C62.8537 47.12 62.2057 46.816 61.7657 46.208V49.004C61.7657 49.084 61.7377 49.148 61.6817 49.196C61.6337 49.252 61.5697 49.28 61.4897 49.28H60.9497ZM63.4817 46.184C64.0577 46.184 64.4777 46.004 64.7417 45.644C65.0057 45.284 65.1497 44.812 65.1737 44.228C65.1817 44.148 65.1857 44.032 65.1857 43.88C65.1857 42.344 64.6177 41.576 63.4817 41.576C62.9217 41.576 62.4977 41.764 62.2097 42.14C61.9297 42.508 61.7817 42.944 61.7657 43.448C61.7577 43.536 61.7537 43.692 61.7537 43.916C61.7537 44.14 61.7577 44.296 61.7657 44.384C61.7817 44.872 61.9337 45.296 62.2217 45.656C62.5177 46.008 62.9377 46.184 63.4817 46.184ZM70.3187 47.12C69.4387 47.12 68.7587 46.872 68.2787 46.376C67.8067 45.88 67.5547 45.22 67.5227 44.396L67.5107 43.88L67.5227 43.364C67.5547 42.54 67.8107 41.88 68.2907 41.384C68.7787 40.888 69.4547 40.64 70.3187 40.64C71.1827 40.64 71.8547 40.888 72.3347 41.384C72.8227 41.88 73.0827 42.54 73.1147 43.364C73.1307 43.54 73.1387 43.712 73.1387 43.88C73.1387 44.048 73.1307 44.22 73.1147 44.396C73.0827 45.22 72.8267 45.88 72.3467 46.376C71.8747 46.872 71.1987 47.12 70.3187 47.12ZM70.3187 46.22C70.8307 46.22 71.2347 46.06 71.5307 45.74C71.8347 45.412 71.9987 44.944 72.0227 44.336C72.0307 44.256 72.0347 44.104 72.0347 43.88C72.0347 43.656 72.0307 43.504 72.0227 43.424C71.9987 42.816 71.8347 42.352 71.5307 42.032C71.2347 41.704 70.8307 41.54 70.3187 41.54C69.8067 41.54 69.3987 41.704 69.0947 42.032C68.7987 42.352 68.6387 42.816 68.6147 43.424L68.6027 43.88L68.6147 44.336C68.6387 44.944 68.7987 45.412 69.0947 45.74C69.3987 46.06 69.8067 46.22 70.3187 46.22ZM79.9099 40.76C79.9739 40.76 80.0339 40.784 80.0899 40.832C80.1459 40.88 80.1739 40.936 80.1739 41V46.724C80.1739 46.804 80.1459 46.872 80.0899 46.928C80.0419 46.976 79.9779 47 79.8979 47H79.3699C79.2899 47 79.2219 46.976 79.1659 46.928C79.1179 46.872 79.0939 46.804 79.0939 46.724V42.332L75.7339 46.82C75.6459 46.94 75.5419 47 75.4219 47H74.9059C74.8419 47 74.7819 46.976 74.7259 46.928C74.6779 46.872 74.6539 46.812 74.6539 46.748V41.036C74.6539 40.956 74.6779 40.892 74.7259 40.844C74.7819 40.788 74.8499 40.76 74.9299 40.76H75.4579C75.5379 40.76 75.6019 40.788 75.6499 40.844C75.7059 40.892 75.7339 40.956 75.7339 41.036V45.428L79.0939 40.94C79.1819 40.82 79.2859 40.76 79.4059 40.76H79.9099ZM84.091 47.12C83.515 47.12 83.035 47.028 82.651 46.844C82.275 46.66 81.999 46.436 81.823 46.172C81.655 45.908 81.567 45.648 81.559 45.392C81.559 45.32 81.583 45.264 81.631 45.224C81.679 45.176 81.739 45.152 81.811 45.152H82.327C82.407 45.152 82.467 45.172 82.507 45.212C82.555 45.244 82.595 45.304 82.627 45.392C82.715 45.696 82.887 45.912 83.143 46.04C83.407 46.168 83.755 46.232 84.187 46.232C84.603 46.232 84.943 46.148 85.207 45.98C85.479 45.804 85.615 45.548 85.615 45.212C85.615 44.54 85.227 44.204 84.451 44.204H83.791C83.711 44.204 83.647 44.18 83.599 44.132C83.551 44.084 83.527 44.02 83.527 43.94V43.64C83.527 43.56 83.551 43.496 83.599 43.448C83.647 43.4 83.711 43.376 83.791 43.376H84.379C85.067 43.376 85.411 43.1 85.411 42.548C85.411 42.26 85.303 42.02 85.087 41.828C84.879 41.628 84.547 41.528 84.091 41.528C83.643 41.528 83.319 41.604 83.119 41.756C82.919 41.9 82.775 42.14 82.687 42.476C82.647 42.628 82.547 42.704 82.387 42.704H81.883C81.819 42.704 81.763 42.684 81.715 42.644C81.667 42.596 81.643 42.54 81.643 42.476C81.651 42.14 81.747 41.836 81.931 41.564C82.115 41.284 82.387 41.06 82.747 40.892C83.115 40.724 83.563 40.64 84.091 40.64C84.643 40.64 85.095 40.728 85.447 40.904C85.807 41.08 86.067 41.3 86.227 41.564C86.387 41.828 86.467 42.104 86.467 42.392C86.467 42.72 86.411 42.984 86.299 43.184C86.195 43.384 86.007 43.552 85.735 43.688C86.079 43.824 86.323 44.028 86.467 44.3C86.619 44.564 86.695 44.892 86.695 45.284C86.695 45.876 86.455 46.332 85.975 46.652C85.495 46.964 84.867 47.12 84.091 47.12ZM88.3362 47C88.2562 47 88.1882 46.976 88.1322 46.928C88.0842 46.872 88.0602 46.804 88.0602 46.724V41.036C88.0602 40.956 88.0842 40.892 88.1322 40.844C88.1882 40.788 88.2562 40.76 88.3362 40.76H90.8202C91.5402 40.76 92.0922 40.912 92.4762 41.216C92.8682 41.512 93.0642 41.916 93.0642 42.428C93.0642 42.772 93.0002 43.04 92.8722 43.232C92.7442 43.424 92.5442 43.588 92.2722 43.724C92.5602 43.844 92.7842 44.044 92.9442 44.324C93.1122 44.604 93.1962 44.908 93.1962 45.236C93.1962 45.804 92.9962 46.24 92.5962 46.544C92.1962 46.848 91.6322 47 90.9042 47H88.3362ZM90.7362 43.424C91.1282 43.424 91.4402 43.34 91.6722 43.172C91.9042 42.996 92.0202 42.752 92.0202 42.44C92.0202 41.888 91.5922 41.612 90.7362 41.612H89.1162V43.424H90.7362ZM90.8082 46.148C91.2082 46.148 91.5242 46.072 91.7562 45.92C91.9962 45.76 92.1162 45.528 92.1162 45.224C92.1162 44.904 92.0082 44.668 91.7922 44.516C91.5762 44.364 91.2482 44.288 90.8082 44.288H89.1162V46.148H90.8082ZM97.2953 47.12C96.4153 47.12 95.7353 46.872 95.2553 46.376C94.7833 45.88 94.5313 45.22 94.4993 44.396L94.4873 43.88L94.4993 43.364C94.5313 42.54 94.7873 41.88 95.2673 41.384C95.7553 40.888 96.4313 40.64 97.2953 40.64C98.1593 40.64 98.8313 40.888 99.3113 41.384C99.7993 41.88 100.059 42.54 100.091 43.364C100.107 43.54 100.115 43.712 100.115 43.88C100.115 44.048 100.107 44.22 100.091 44.396C100.059 45.22 99.8033 45.88 99.3233 46.376C98.8513 46.872 98.1753 47.12 97.2953 47.12ZM97.2953 46.22C97.8073 46.22 98.2113 46.06 98.5073 45.74C98.8113 45.412 98.9753 44.944 98.9993 44.336C99.0073 44.256 99.0113 44.104 99.0113 43.88C99.0113 43.656 99.0073 43.504 98.9993 43.424C98.9753 42.816 98.8113 42.352 98.5073 42.032C98.2113 41.704 97.8073 41.54 97.2953 41.54C96.7833 41.54 96.3753 41.704 96.0713 42.032C95.7753 42.352 95.6153 42.816 95.5913 43.424L95.5793 43.88L95.5913 44.336C95.6153 44.944 95.7753 45.412 96.0713 45.74C96.3753 46.06 96.7833 46.22 97.2953 46.22ZM101.258 48.32C101.178 48.32 101.11 48.296 101.054 48.248C101.006 48.2 100.982 48.132 100.982 48.044V46.34C100.982 46.26 101.006 46.196 101.054 46.148C101.11 46.092 101.178 46.064 101.258 46.064H101.318C101.654 46.064 101.906 45.784 102.074 45.224C102.25 44.664 102.338 43.78 102.338 42.572V41.036C102.338 40.956 102.362 40.892 102.41 40.844C102.466 40.788 102.534 40.76 102.614 40.76H106.406C106.494 40.76 106.562 40.784 106.61 40.832C106.658 40.88 106.682 40.948 106.682 41.036V46.052H107.246C107.334 46.052 107.402 46.076 107.45 46.124C107.498 46.172 107.522 46.24 107.522 46.328V48.044C107.522 48.132 107.498 48.2 107.45 48.248C107.402 48.296 107.334 48.32 107.246 48.32H106.718C106.638 48.32 106.574 48.292 106.526 48.236C106.478 48.188 106.454 48.124 106.454 48.044V47H102.062V48.044C102.062 48.124 102.034 48.188 101.978 48.236C101.93 48.292 101.866 48.32 101.786 48.32H101.258ZM105.602 46.052V41.684H103.394V42.692C103.394 44.324 103.162 45.448 102.698 46.064L105.602 46.052ZM114.047 40.76C114.111 40.76 114.171 40.784 114.227 40.832C114.283 40.88 114.311 40.936 114.311 41V46.724C114.311 46.804 114.283 46.872 114.227 46.928C114.179 46.976 114.115 47 114.035 47H113.507C113.427 47 113.359 46.976 113.303 46.928C113.255 46.872 113.231 46.804 113.231 46.724V42.332L109.871 46.82C109.783 46.94 109.679 47 109.559 47H109.043C108.979 47 108.919 46.976 108.863 46.928C108.815 46.872 108.791 46.812 108.791 46.748V41.036C108.791 40.956 108.815 40.892 108.863 40.844C108.919 40.788 108.987 40.76 109.067 40.76H109.595C109.675 40.76 109.739 40.788 109.787 40.844C109.843 40.892 109.871 40.956 109.871 41.036V45.428L113.231 40.94C113.319 40.82 113.423 40.76 113.543 40.76H114.047ZM117.988 47C117.908 47 117.84 46.976 117.784 46.928C117.736 46.872 117.712 46.804 117.712 46.724V41.684H115.612C115.532 41.684 115.464 41.66 115.408 41.612C115.36 41.564 115.336 41.5 115.336 41.42V41.036C115.336 40.956 115.36 40.892 115.408 40.844C115.464 40.788 115.532 40.76 115.612 40.76H120.88C120.96 40.76 121.024 40.788 121.072 40.844C121.12 40.892 121.144 40.956 121.144 41.036V41.42C121.144 41.5 121.12 41.564 121.072 41.612C121.024 41.66 120.96 41.684 120.88 41.684H118.78V46.724C118.78 46.804 118.752 46.872 118.696 46.928C118.648 46.976 118.584 47 118.504 47H117.988ZM124.681 47.12C123.865 47.12 123.213 46.868 122.725 46.364C122.237 45.852 121.969 45.156 121.921 44.276L121.909 43.868L121.921 43.472C121.969 42.608 122.237 41.92 122.725 41.408C123.213 40.896 123.865 40.64 124.681 40.64C125.561 40.64 126.241 40.92 126.721 41.48C127.209 42.04 127.453 42.8 127.453 43.76V43.976C127.453 44.056 127.425 44.124 127.369 44.18C127.321 44.228 127.257 44.252 127.177 44.252H123.013V44.36C123.037 44.88 123.197 45.324 123.493 45.692C123.789 46.06 124.181 46.244 124.669 46.244C125.045 46.244 125.349 46.172 125.581 46.028C125.821 45.876 126.001 45.72 126.121 45.56C126.193 45.464 126.249 45.408 126.289 45.392C126.329 45.368 126.397 45.356 126.493 45.356H127.021C127.093 45.356 127.153 45.376 127.201 45.416C127.257 45.456 127.285 45.508 127.285 45.572C127.285 45.748 127.177 45.96 126.961 46.208C126.745 46.456 126.437 46.672 126.037 46.856C125.645 47.032 125.193 47.12 124.681 47.12ZM126.361 43.436V43.4C126.361 42.84 126.209 42.384 125.905 42.032C125.601 41.68 125.193 41.504 124.681 41.504C124.161 41.504 123.753 41.68 123.457 42.032C123.161 42.384 123.013 42.84 123.013 43.4V43.436H126.361ZM128.553 47C128.473 47 128.405 46.972 128.349 46.916C128.293 46.86 128.265 46.792 128.265 46.712V46.292C128.265 46.22 128.289 46.16 128.337 46.112C128.385 46.064 128.445 46.036 128.517 46.028C128.901 46.02 129.189 45.748 129.381 45.212C129.573 44.668 129.669 43.788 129.669 42.572V41.036C129.669 40.956 129.693 40.892 129.741 40.844C129.797 40.788 129.865 40.76 129.945 40.76H133.713C133.801 40.76 133.869 40.784 133.917 40.832C133.965 40.88 133.989 40.948 133.989 41.036V46.724C133.989 46.804 133.961 46.872 133.905 46.928C133.857 46.976 133.793 47 133.713 47H133.185C133.105 47 133.037 46.976 132.981 46.928C132.933 46.872 132.909 46.804 132.909 46.724V41.684H130.725V42.692C130.725 44.212 130.549 45.312 130.197 45.992C129.845 46.664 129.297 47 128.553 47ZM140.218 40.76C140.298 40.76 140.362 40.788 140.41 40.844C140.466 40.892 140.494 40.956 140.494 41.036V46.724C140.494 46.804 140.466 46.872 140.41 46.928C140.362 46.976 140.298 47 140.218 47H139.678C139.598 47 139.53 46.976 139.474 46.928C139.426 46.872 139.402 46.804 139.402 46.724V44.756H138.106L136.726 46.82C136.694 46.868 136.65 46.912 136.594 46.952C136.538 46.984 136.478 47 136.414 47H135.874C135.81 47 135.754 46.976 135.706 46.928C135.658 46.88 135.634 46.824 135.634 46.76C135.634 46.68 135.662 46.604 135.718 46.532L137.062 44.564C136.646 44.42 136.33 44.188 136.114 43.868C135.906 43.548 135.802 43.164 135.802 42.716C135.802 42.052 135.998 41.56 136.39 41.24C136.79 40.92 137.39 40.76 138.19 40.76H140.218ZM139.414 41.636H138.142C137.678 41.636 137.342 41.72 137.134 41.888C136.926 42.048 136.822 42.324 136.822 42.716C136.822 43.068 136.922 43.352 137.122 43.568C137.33 43.776 137.638 43.88 138.046 43.88H139.414V41.636Z" fill="#414141"/>
<path d="M211.52 43.9941V47H209.762V38.4688H213.09C213.73 38.4688 214.293 38.5859 214.777 38.8203C215.266 39.0547 215.641 39.3887 215.902 39.8223C216.164 40.252 216.295 40.7422 216.295 41.293C216.295 42.1289 216.008 42.7891 215.434 43.2734C214.863 43.7539 214.072 43.9941 213.061 43.9941H211.52ZM211.52 42.5703H213.09C213.555 42.5703 213.908 42.4609 214.15 42.2422C214.396 42.0234 214.52 41.7109 214.52 41.3047C214.52 40.8867 214.396 40.5488 214.15 40.291C213.904 40.0332 213.564 39.9004 213.131 39.8926H211.52V42.5703ZM217.051 43.7715C217.051 43.1426 217.172 42.582 217.414 42.0898C217.656 41.5977 218.004 41.2168 218.457 40.9473C218.914 40.6777 219.443 40.543 220.045 40.543C220.9 40.543 221.598 40.8047 222.137 41.3281C222.68 41.8516 222.982 42.5625 223.045 43.4609L223.057 43.8945C223.057 44.8672 222.785 45.6484 222.242 46.2383C221.699 46.8242 220.971 47.1172 220.057 47.1172C219.143 47.1172 218.412 46.8242 217.865 46.2383C217.322 45.6523 217.051 44.8555 217.051 43.8477V43.7715ZM218.744 43.8945C218.744 44.4961 218.857 44.957 219.084 45.2773C219.311 45.5938 219.635 45.752 220.057 45.752C220.467 45.752 220.787 45.5957 221.018 45.2832C221.248 44.9668 221.363 44.4629 221.363 43.7715C221.363 43.1816 221.248 42.7246 221.018 42.4004C220.787 42.0762 220.463 41.9141 220.045 41.9141C219.631 41.9141 219.311 42.0762 219.084 42.4004C218.857 42.7207 218.744 43.2188 218.744 43.8945ZM226.736 45.752C227.049 45.752 227.303 45.666 227.498 45.4941C227.693 45.3223 227.795 45.0938 227.803 44.8086H229.391C229.387 45.2383 229.27 45.6328 229.039 45.9922C228.809 46.3477 228.492 46.625 228.09 46.8242C227.691 47.0195 227.25 47.1172 226.766 47.1172C225.859 47.1172 225.145 46.8301 224.621 46.2559C224.098 45.6777 223.836 44.8809 223.836 43.8652V43.7539C223.836 42.7773 224.096 41.998 224.615 41.416C225.135 40.834 225.848 40.543 226.754 40.543C227.547 40.543 228.182 40.7695 228.658 41.2227C229.139 41.6719 229.383 42.2715 229.391 43.0215H227.803C227.795 42.6934 227.693 42.4277 227.498 42.2246C227.303 42.0176 227.045 41.9141 226.725 41.9141C226.33 41.9141 226.031 42.0586 225.828 42.3477C225.629 42.6328 225.529 43.0977 225.529 43.7422V43.918C225.529 44.5703 225.629 45.0391 225.828 45.3242C226.027 45.6094 226.33 45.752 226.736 45.752ZM232.994 45.752C233.307 45.752 233.561 45.666 233.756 45.4941C233.951 45.3223 234.053 45.0938 234.061 44.8086H235.648C235.645 45.2383 235.527 45.6328 235.297 45.9922C235.066 46.3477 234.75 46.625 234.348 46.8242C233.949 47.0195 233.508 47.1172 233.023 47.1172C232.117 47.1172 231.402 46.8301 230.879 46.2559C230.355 45.6777 230.094 44.8809 230.094 43.8652V43.7539C230.094 42.7773 230.354 41.998 230.873 41.416C231.393 40.834 232.105 40.543 233.012 40.543C233.805 40.543 234.439 40.7695 234.916 41.2227C235.396 41.6719 235.641 42.2715 235.648 43.0215H234.061C234.053 42.6934 233.951 42.4277 233.756 42.2246C233.561 42.0176 233.303 41.9141 232.982 41.9141C232.588 41.9141 232.289 42.0586 232.086 42.3477C231.887 42.6328 231.787 43.0977 231.787 43.7422V43.918C231.787 44.5703 231.887 45.0391 232.086 45.3242C232.285 45.6094 232.588 45.752 232.994 45.752ZM240.436 40.6602H242.129V47H240.436V43.0859L238.314 47H236.615V40.6602H238.314V44.5684L240.436 40.6602ZM248.709 40.6602V47H247.021V44.8086H245.949L244.73 47H243.014L244.396 44.5215C244.018 44.3457 243.725 44.1074 243.518 43.8066C243.314 43.5059 243.213 43.1641 243.213 42.7812C243.213 42.168 243.449 41.666 243.922 41.2754C244.398 40.8809 245.035 40.6758 245.832 40.6602H248.709ZM245.861 43.625H247.021V42.0195H245.92C245.619 42.0195 245.375 42.0996 245.188 42.2598C245 42.416 244.906 42.6074 244.906 42.834C244.906 43.0605 244.996 43.248 245.176 43.3965C245.355 43.5449 245.584 43.6211 245.861 43.625Z" fill="#414141"/>
<rect width="584" height="26" transform="translate(0 60)" fill="#F3F2F1"/>
<path d="M14.792 68.6C14.856 68.6 14.912 68.624 14.96 68.672C15.008 68.72 15.032 68.776 15.032 68.84C15.032 68.888 15.02 68.944 14.996 69.008L12.548 74.552C12.268 75.184 12.02 75.668 11.804 76.004C11.596 76.332 11.34 76.58 11.036 76.748C10.74 76.916 10.36 77 9.896 77H9.416C9.336 77 9.272 76.976 9.224 76.928C9.176 76.872 9.152 76.804 9.152 76.724V76.256C9.152 76.168 9.176 76.1 9.224 76.052C9.272 75.996 9.336 75.968 9.416 75.968H9.848C10.16 75.968 10.424 75.868 10.64 75.668C10.856 75.468 11.08 75.132 11.312 74.66L8.192 68.984C8.168 68.936 8.156 68.892 8.156 68.852C8.156 68.78 8.18 68.72 8.228 68.672C8.284 68.624 8.344 68.6 8.408 68.6H9.044C9.156 68.6 9.252 68.664 9.332 68.792L11.876 73.412L13.892 68.792C13.94 68.664 14.04 68.6 14.192 68.6H14.792ZM15.7268 77C15.6468 77 15.5788 76.976 15.5228 76.928C15.4748 76.872 15.4508 76.804 15.4508 76.724V71.036C15.4508 70.956 15.4748 70.892 15.5228 70.844C15.5788 70.788 15.6468 70.76 15.7268 70.76H20.4548C20.5348 70.76 20.5988 70.788 20.6468 70.844C20.6948 70.892 20.7188 70.956 20.7188 71.036V76.724C20.7188 76.804 20.6948 76.872 20.6468 76.928C20.5988 76.976 20.5348 77 20.4548 77H19.9268C19.8468 77 19.7788 76.976 19.7228 76.928C19.6748 76.872 19.6508 76.804 19.6508 76.724V71.684H16.5308V76.724C16.5308 76.804 16.5028 76.872 16.4468 76.928C16.3988 76.976 16.3348 77 16.2548 77H15.7268ZM24.2686 77.12C23.8766 77.12 23.5126 77.04 23.1766 76.88C22.8486 76.72 22.5846 76.504 22.3846 76.232C22.1926 75.952 22.0966 75.644 22.0966 75.308C22.0966 74.78 22.3126 74.348 22.7446 74.012C23.1766 73.676 23.7646 73.452 24.5086 73.34L26.3086 73.088V72.74C26.3086 71.916 25.8326 71.504 24.8806 71.504C24.5126 71.504 24.2166 71.58 23.9926 71.732C23.7686 71.876 23.6046 72.048 23.5006 72.248C23.4686 72.328 23.4326 72.384 23.3926 72.416C23.3606 72.44 23.3126 72.452 23.2486 72.452H22.7806C22.7086 72.452 22.6446 72.428 22.5886 72.38C22.5406 72.324 22.5166 72.26 22.5166 72.188C22.5166 72.004 22.6006 71.792 22.7686 71.552C22.9446 71.304 23.2126 71.092 23.5726 70.916C23.9326 70.732 24.3726 70.64 24.8926 70.64C25.7886 70.64 26.4286 70.848 26.8126 71.264C27.2046 71.68 27.4006 72.2 27.4006 72.824V76.724C27.4006 76.804 27.3726 76.872 27.3166 76.928C27.2686 76.976 27.2046 77 27.1246 77H26.5966C26.5166 77 26.4526 76.976 26.4046 76.928C26.3566 76.872 26.3326 76.804 26.3326 76.724V76.196C26.1566 76.46 25.9006 76.68 25.5646 76.856C25.2286 77.032 24.7966 77.12 24.2686 77.12ZM24.5086 76.244C25.0366 76.244 25.4686 76.072 25.8046 75.728C26.1406 75.384 26.3086 74.884 26.3086 74.228V73.892L24.9046 74.096C24.3286 74.176 23.8926 74.312 23.5966 74.504C23.3006 74.696 23.1526 74.936 23.1526 75.224C23.1526 75.552 23.2846 75.804 23.5486 75.98C23.8206 76.156 24.1406 76.244 24.5086 76.244ZM34.2983 76.652C34.3303 76.708 34.3463 76.76 34.3463 76.808C34.3463 76.936 34.2703 77 34.1183 77H33.4343C33.3143 77 33.2063 76.94 33.1103 76.82L31.3463 74.3H30.2063V76.724C30.2063 76.804 30.1783 76.872 30.1223 76.928C30.0743 76.976 30.0103 77 29.9303 77H29.4143C29.3343 77 29.2663 76.976 29.2103 76.928C29.1623 76.872 29.1383 76.804 29.1383 76.724V71.036C29.1383 70.956 29.1623 70.892 29.2103 70.844C29.2663 70.788 29.3343 70.76 29.4143 70.76H29.9303C30.0183 70.76 30.0863 70.784 30.1343 70.832C30.1823 70.88 30.2063 70.948 30.2063 71.036V73.352H31.3223L32.9663 70.94C33.0463 70.82 33.1503 70.76 33.2783 70.76H33.8663C33.9383 70.76 33.9983 70.78 34.0463 70.82C34.0943 70.852 34.1183 70.896 34.1183 70.952C34.1183 70.968 34.1103 70.992 34.0943 71.024C34.0783 71.048 34.0663 71.072 34.0583 71.096L32.2583 73.748L34.2983 76.652ZM37.7758 77.12C36.8958 77.12 36.2158 76.872 35.7358 76.376C35.2638 75.88 35.0118 75.22 34.9798 74.396L34.9678 73.88L34.9798 73.364C35.0118 72.54 35.2678 71.88 35.7478 71.384C36.2358 70.888 36.9118 70.64 37.7758 70.64C38.6398 70.64 39.3118 70.888 39.7918 71.384C40.2798 71.88 40.5398 72.54 40.5718 73.364C40.5878 73.54 40.5958 73.712 40.5958 73.88C40.5958 74.048 40.5878 74.22 40.5718 74.396C40.5398 75.22 40.2838 75.88 39.8038 76.376C39.3318 76.872 38.6558 77.12 37.7758 77.12ZM37.7758 76.22C38.2878 76.22 38.6918 76.06 38.9878 75.74C39.2918 75.412 39.4558 74.944 39.4798 74.336C39.4878 74.256 39.4918 74.104 39.4918 73.88C39.4918 73.656 39.4878 73.504 39.4798 73.424C39.4558 72.816 39.2918 72.352 38.9878 72.032C38.6918 71.704 38.2878 71.54 37.7758 71.54C37.2638 71.54 36.8558 71.704 36.5518 72.032C36.2558 72.352 36.0958 72.816 36.0718 73.424L36.0598 73.88L36.0718 74.336C36.0958 74.944 36.2558 75.412 36.5518 75.74C36.8558 76.06 37.2638 76.22 37.7758 76.22ZM42.3869 77C42.3069 77 42.2389 76.976 42.1829 76.928C42.1349 76.872 42.1109 76.804 42.1109 76.724V71.036C42.1109 70.956 42.1349 70.892 42.1829 70.844C42.2389 70.788 42.3069 70.76 42.3869 70.76H44.8709C45.5909 70.76 46.1429 70.912 46.5269 71.216C46.9189 71.512 47.1149 71.916 47.1149 72.428C47.1149 72.772 47.0509 73.04 46.9229 73.232C46.7949 73.424 46.5949 73.588 46.3229 73.724C46.6109 73.844 46.8349 74.044 46.9949 74.324C47.1629 74.604 47.2469 74.908 47.2469 75.236C47.2469 75.804 47.0469 76.24 46.6469 76.544C46.2469 76.848 45.6829 77 44.9549 77H42.3869ZM44.7869 73.424C45.1789 73.424 45.4909 73.34 45.7229 73.172C45.9549 72.996 46.0709 72.752 46.0709 72.44C46.0709 71.888 45.6429 71.612 44.7869 71.612H43.1669V73.424H44.7869ZM44.8589 76.148C45.2589 76.148 45.5749 76.072 45.8069 75.92C46.0469 75.76 46.1669 75.528 46.1669 75.224C46.1669 74.904 46.0589 74.668 45.8429 74.516C45.6269 74.364 45.2989 74.288 44.8589 74.288H43.1669V76.148H44.8589ZM53.9741 76.652C54.0061 76.708 54.0221 76.76 54.0221 76.808C54.0221 76.936 53.9461 77 53.7941 77H53.1101C52.9901 77 52.8821 76.94 52.7861 76.82L51.0221 74.3H49.8821V76.724C49.8821 76.804 49.8541 76.872 49.7981 76.928C49.7501 76.976 49.6861 77 49.6061 77H49.0901C49.0101 77 48.9421 76.976 48.8861 76.928C48.8381 76.872 48.8141 76.804 48.8141 76.724V71.036C48.8141 70.956 48.8381 70.892 48.8861 70.844C48.9421 70.788 49.0101 70.76 49.0901 70.76H49.6061C49.6941 70.76 49.7621 70.784 49.8101 70.832C49.8581 70.88 49.8821 70.948 49.8821 71.036V73.352H50.9981L52.6421 70.94C52.7221 70.82 52.8261 70.76 52.9541 70.76H53.5421C53.6141 70.76 53.6741 70.78 53.7221 70.82C53.7701 70.852 53.7941 70.896 53.7941 70.952C53.7941 70.968 53.7861 70.992 53.7701 71.024C53.7541 71.048 53.7421 71.072 53.7341 71.096L51.9341 73.748L53.9741 76.652ZM56.9405 77.12C56.5485 77.12 56.1845 77.04 55.8485 76.88C55.5205 76.72 55.2565 76.504 55.0565 76.232C54.8645 75.952 54.7685 75.644 54.7685 75.308C54.7685 74.78 54.9845 74.348 55.4165 74.012C55.8485 73.676 56.4365 73.452 57.1805 73.34L58.9805 73.088V72.74C58.9805 71.916 58.5045 71.504 57.5525 71.504C57.1845 71.504 56.8885 71.58 56.6645 71.732C56.4405 71.876 56.2765 72.048 56.1725 72.248C56.1405 72.328 56.1045 72.384 56.0645 72.416C56.0325 72.44 55.9845 72.452 55.9205 72.452H55.4525C55.3805 72.452 55.3165 72.428 55.2605 72.38C55.2125 72.324 55.1885 72.26 55.1885 72.188C55.1885 72.004 55.2725 71.792 55.4405 71.552C55.6165 71.304 55.8845 71.092 56.2445 70.916C56.6045 70.732 57.0445 70.64 57.5645 70.64C58.4605 70.64 59.1005 70.848 59.4845 71.264C59.8765 71.68 60.0725 72.2 60.0725 72.824V76.724C60.0725 76.804 60.0445 76.872 59.9885 76.928C59.9405 76.976 59.8765 77 59.7965 77H59.2685C59.1885 77 59.1245 76.976 59.0765 76.928C59.0285 76.872 59.0045 76.804 59.0045 76.724V76.196C58.8285 76.46 58.5725 76.68 58.2365 76.856C57.9005 77.032 57.4685 77.12 56.9405 77.12ZM57.1805 76.244C57.7085 76.244 58.1405 76.072 58.4765 75.728C58.8125 75.384 58.9805 74.884 58.9805 74.228V73.892L57.5765 74.096C57.0005 74.176 56.5645 74.312 56.2685 74.504C55.9725 74.696 55.8245 74.936 55.8245 75.224C55.8245 75.552 55.9565 75.804 56.2205 75.98C56.4925 76.156 56.8125 76.244 57.1805 76.244Z" fill="#414141"/>
<path d="M213.693 77H212V70.4727L209.979 71.0996V69.7227L213.512 68.457H213.693V77ZM222.031 70.7363C222.031 71.1504 221.928 71.5176 221.721 71.8379C221.514 72.1582 221.229 72.4141 220.865 72.6055C221.279 72.8047 221.607 73.0801 221.85 73.4316C222.092 73.7793 222.213 74.1895 222.213 74.6621C222.213 75.4199 221.955 76.0195 221.439 76.4609C220.924 76.8984 220.223 77.1172 219.336 77.1172C218.449 77.1172 217.746 76.8965 217.227 76.4551C216.707 76.0137 216.447 75.416 216.447 74.6621C216.447 74.1895 216.568 73.7773 216.811 73.4258C217.053 73.0742 217.379 72.8008 217.789 72.6055C217.426 72.4141 217.141 72.1582 216.934 71.8379C216.73 71.5176 216.629 71.1504 216.629 70.7363C216.629 70.0098 216.871 69.4316 217.355 69.002C217.84 68.5684 218.498 68.3516 219.33 68.3516C220.158 68.3516 220.814 68.5664 221.299 68.9961C221.787 69.4219 222.031 70.002 222.031 70.7363ZM220.514 74.5391C220.514 74.168 220.406 73.8711 220.191 73.6484C219.977 73.4258 219.688 73.3145 219.324 73.3145C218.965 73.3145 218.678 73.4258 218.463 73.6484C218.248 73.8672 218.141 74.1641 218.141 74.5391C218.141 74.9023 218.246 75.1953 218.457 75.418C218.668 75.6406 218.961 75.752 219.336 75.752C219.703 75.752 219.99 75.6445 220.197 75.4297C220.408 75.2148 220.514 74.918 220.514 74.5391ZM220.338 70.8184C220.338 70.4863 220.25 70.2207 220.074 70.0215C219.898 69.8184 219.65 69.7168 219.33 69.7168C219.014 69.7168 218.768 69.8145 218.592 70.0098C218.416 70.2051 218.328 70.4746 218.328 70.8184C218.328 71.1582 218.416 71.4316 218.592 71.6387C218.768 71.8457 219.016 71.9492 219.336 71.9492C219.656 71.9492 219.902 71.8457 220.074 71.6387C220.25 71.4316 220.338 71.1582 220.338 70.8184ZM229.104 73.4727C229.104 74.6523 228.859 75.5547 228.371 76.1797C227.883 76.8047 227.168 77.1172 226.227 77.1172C225.297 77.1172 224.586 76.8105 224.094 76.1973C223.602 75.584 223.35 74.7051 223.338 73.5605V71.9902C223.338 70.7988 223.584 69.8945 224.076 69.2773C224.572 68.6602 225.285 68.3516 226.215 68.3516C227.145 68.3516 227.855 68.6582 228.348 69.2715C228.84 69.8809 229.092 70.7578 229.104 71.9023V73.4727ZM227.41 71.75C227.41 71.043 227.312 70.5293 227.117 70.209C226.926 69.8848 226.625 69.7227 226.215 69.7227C225.816 69.7227 225.521 69.877 225.33 70.1855C225.143 70.4902 225.043 70.9688 225.031 71.6211V73.6953C225.031 74.3906 225.125 74.9082 225.312 75.248C225.504 75.584 225.809 75.752 226.227 75.752C226.641 75.752 226.939 75.5898 227.123 75.2656C227.307 74.9414 227.402 74.4453 227.41 73.7773V71.75ZM237.629 72.0312H235.004V77H233.311V70.6602H237.629V72.0312Z" fill="#414141"/>
</svg>
