<svg width="100" height="10" viewBox="0 0 100 10" fill="none" xmlns="http://www.w3.org/2000/svg">
<path fill-rule="evenodd" clip-rule="evenodd" d="M18.241 0.0637908L10.3876 7.47389C10.1121 7.73378 10.3173 8.16345 10.7168 8.16345H18.4056C18.5311 8.16345 18.6328 8.07208 18.6328 7.95937V0.204492C18.6328 0.0202359 18.3824 -0.0696746 18.241 0.0637908ZM8.24523 1.91434L0.391843 9.32443C0.250394 9.4579 0 9.36798 0 9.18373V1.42885C0 1.31614 0.10174 1.22477 0.227242 1.22477H7.91603C8.31554 1.22477 8.52067 1.65444 8.24523 1.91434ZM49.8157 2.11389C49.5623 1.98497 49.2592 1.87382 48.9065 1.77157C48.2954 1.59819 47.3812 1.42481 46.1491 1.42481C43.6003 1.42481 42.6166 2.33173 42.6166 3.44315C42.6166 4.47455 43.2625 5.26588 46.0199 5.52818C47.6694 5.69267 48.0271 5.74602 48.0271 6.06611C48.0271 6.47511 47.2967 6.5907 46 6.5907C45.2101 6.5907 44.5542 6.47956 44.0971 6.35952C43.8239 6.29284 43.5854 6.21281 43.3767 6.12835L42.393 7.41315C42.6265 7.55097 42.9197 7.67544 43.2724 7.78659C43.8736 7.97775 44.7977 8.15558 46.0994 8.15558C48.4643 8.15558 50.1486 7.59542 50.1486 6.06611C50.1486 4.80353 49.135 4.2745 46.4273 4.00331C45.1902 3.88327 44.7381 3.78547 44.7381 3.44315C44.7381 3.10528 45.2895 2.98969 46.2484 2.98969C47.0086 2.98969 47.6495 3.09194 48.1066 3.19419C48.3749 3.25199 48.6183 3.32312 48.832 3.39869L49.8157 2.11389ZM31.7316 2.53179L27.6774 6.41287H31.7316V7.97775H24.2543V7.0486L28.3034 3.16752H24.3536V1.60264H31.7316V2.53179ZM41.9387 7.97775H39.6831L39.0521 6.94635H35.2762L34.6452 7.97775H32.3896L36.2997 1.60264H38.0286L41.9387 7.97775ZM38.1777 5.51484L37.1642 3.8566L36.1506 5.51484H38.1777ZM60.6538 4.79019C60.6538 6.65294 59.1136 8.15558 55.755 8.15558C52.3964 8.15558 50.8563 6.65294 50.8563 4.79019C50.8563 2.92745 52.3964 1.42481 55.755 1.42481C59.1136 1.42481 60.6538 2.92745 60.6538 4.79019ZM52.9777 4.79019C52.9777 5.69711 53.5739 6.5907 55.755 6.5907C57.9361 6.5907 58.5323 5.69711 58.5323 4.79019C58.5323 3.88327 57.9361 2.98969 55.755 2.98969C53.5739 2.98969 52.9777 3.88327 52.9777 4.79019ZM62.9662 1.60264H60.7106L64.5213 7.97775H66.2503L70.061 1.60264H67.8054L65.3858 5.72379L62.9662 1.60264ZM76.8698 1.77157C77.2225 1.87382 77.5256 1.98497 77.779 2.11389L76.7953 3.39869C76.5816 3.32312 76.3382 3.25199 76.0699 3.19419C75.6128 3.09194 74.9719 2.98969 74.2117 2.98969C73.2529 2.98969 72.7014 3.10528 72.7014 3.44315C72.7014 3.78547 73.1535 3.88327 74.3906 4.00331C77.0983 4.2745 78.1119 4.80353 78.1119 6.06611C78.1119 7.59542 76.4276 8.15558 74.0627 8.15558C72.761 8.15558 71.8369 7.97775 71.2357 7.78659C70.883 7.67544 70.5898 7.55097 70.3563 7.41315L71.3401 6.12835C71.5487 6.21281 71.7872 6.29284 72.0605 6.35952C72.5175 6.47956 73.1734 6.5907 73.9633 6.5907C75.2601 6.5907 75.9904 6.47511 75.9904 6.06611C75.9904 5.74602 75.6327 5.69267 73.9832 5.52818C71.2258 5.26588 70.5799 4.47455 70.5799 3.44315C70.5799 2.33173 71.5636 1.42481 74.1124 1.42481C75.3445 1.42481 76.2587 1.59819 76.8698 1.77157ZM81.1199 3.97219V1.60264H79.0183V7.97775H81.1199V6.00387L81.8999 5.42593L84.553 7.97775H87.1216L83.3507 4.35452L87.072 1.60264H84.3245L81.1199 3.97219ZM89.9806 7.97775H87.879V1.60264H89.9806V7.97775ZM93.2172 1.60264H90.738L94.3152 5.44816V7.97775H96.4217V5.44816L99.9989 1.60264H97.5197L95.3685 3.92329L93.2172 1.60264Z" fill="#414141"/>
</svg>
